<svg aria-hidden="true" style="position: absolute; width: 0; height: 0; overflow: hidden;" version="1.1" xmlns="http://www.w3.org/2000/svg" xmlns:xlink="http://www.w3.org/1999/xlink">
<defs>
<symbol id="icon-d_rotation" viewBox="0 0 24 24">
<title>d_rotation</title>
<path d="M12 0c6.281 0 11.438 4.828 11.953 10.969h-1.5c-0.328-3.75-2.672-6.891-5.953-8.438l-1.359 1.313-3.797-3.797zM16.547 11.813c0-1.638-0.641-2.672-2.203-2.672h-0.938v5.766h0.891c1.202 0 1.888-0.654 2.156-1.594 0.094-0.328 0.094-0.703 0.094-1.125v-0.375zM14.344 8.016c1.79 0 2.856 0.906 3.375 2.203 0.188 0.469 0.234 1.031 0.234 1.594v0.375c0 1.238-0.355 2.136-0.984 2.766s-1.432 1.031-2.672 1.031h-2.297v-7.969h2.344zM9.703 11.906c0.717 0.287 1.313 0.855 1.313 1.828 0 0.375-0.094 0.656-0.234 0.938s-0.281 0.563-0.516 0.75c-0.44 0.352-1.104 0.563-1.875 0.563-1.458 0-2.531-0.738-2.531-2.203h1.266c0 0.724 0.544 1.172 1.266 1.172 0.838 0 1.313-0.4 1.313-1.266 0-0.883-0.581-1.266-1.453-1.266h-0.75v-1.031h0.75c0.811 0 1.359-0.376 1.359-1.172 0-0.775-0.414-1.172-1.219-1.172-0.677 0-1.172 0.402-1.172 1.078h-1.313c0-0.698 0.354-1.151 0.703-1.5 0.465-0.372 0.98-0.609 1.781-0.609 1.202 0 1.893 0.458 2.297 1.266 0.141 0.281 0.188 0.563 0.188 0.938 0 0.853-0.578 1.391-1.172 1.688zM7.5 21.469l1.359-1.313 3.797 3.797-0.656 0.047c-6.281 0-11.438-4.875-11.953-11.016h1.5c0.375 3.75 2.672 6.938 5.953 8.484z"></path>
</symbol>
<symbol id="icon-ac_unit" viewBox="0 0 24 24">
<title>ac_unit</title>
<path d="M21.984 11.016v1.969h-4.172l3.234 3.234-1.406 1.453-4.641-4.688h-2.016v2.016l4.688 4.641-1.453 1.406-3.234-3.234v4.172h-1.969v-4.172l-3.234 3.234-1.453-1.406 4.688-4.641v-2.016h-2.016l-4.641 4.688-1.406-1.453 3.234-3.234h-4.172v-1.969h4.172l-3.234-3.234 1.406-1.453 4.641 4.688h2.016v-2.016l-4.688-4.641 1.453-1.406 3.234 3.234v-4.172h1.969v4.172l3.234-3.234 1.453 1.406-4.688 4.641v2.016h2.016l4.641-4.688 1.406 1.453-3.234 3.234h4.172z"></path>
</symbol>
<symbol id="icon-access_alarms" viewBox="0 0 24 24">
<title>access_alarms</title>
<path d="M12 20.016c3.891 0 6.984-3.141 6.984-7.031s-3.094-6.984-6.984-6.984-6.984 3.094-6.984 6.984 3.094 7.031 6.984 7.031zM12 3.984c5.016 0 9 3.984 9 9s-3.984 9-9 9-9-3.984-9-9 3.984-9 9-9zM12.516 8.016v5.297l3.984 2.391-0.797 1.219-4.688-2.906v-6h1.5zM7.922 3.422l-4.641 3.797-1.266-1.5 4.594-3.797zM21.984 5.719l-1.266 1.5-4.641-3.938 1.313-1.5z"></path>
</symbol>
<symbol id="icon-accessibility" viewBox="0 0 24 24">
<title>accessibility</title>
<path d="M21 9h-6v12.984h-2.016v-6h-1.969v6h-2.016v-12.984h-6v-2.016h18v2.016zM12 2.016c1.078 0 2.016 0.891 2.016 1.969s-0.938 2.016-2.016 2.016-2.016-0.938-2.016-2.016 0.938-1.969 2.016-1.969z"></path>
</symbol>
<symbol id="icon-accessible" viewBox="0 0 24 24">
<title>accessible</title>
<path d="M12.844 18h2.063c-0.469 2.297-2.484 3.984-4.922 3.984-2.766 0-4.969-2.203-4.969-4.969 0-2.438 1.688-4.453 3.984-4.922v2.063c-1.172 0.422-2.016 1.547-2.016 2.859 0 1.641 1.359 3 3 3 1.313 0 2.438-0.844 2.859-2.016zM9.984 9.094c0-1.406 1.564-2.649 3-1.828h0.047v0.047c0.234 0.094 0.422 0.234 0.609 0.422l1.313 1.453c0.984 1.078 2.484 1.828 4.031 1.828v1.969c-1.734 0-3.656-0.844-4.969-1.922v3.422h3c1.078 0 1.969 0.938 1.969 2.016v5.484h-1.969v-4.969h-5.016c-1.078 0-2.016-0.938-2.016-2.016v-5.906zM9.984 3.984c0-1.125 0.891-1.969 2.016-1.969s2.016 0.844 2.016 1.969-0.891 2.016-2.016 2.016-2.016-0.891-2.016-2.016z"></path>
</symbol>
<symbol id="icon-account_balance" viewBox="0 0 24 24">
<title>account_balance</title>
<path d="M11.484 0.984l9.516 5.016v2.016h-18.984v-2.016zM15.984 9.984h3v7.031h-3v-7.031zM2.016 21.984v-3h18.984v3h-18.984zM9.984 9.984h3v7.031h-3v-7.031zM3.984 9.984h3v7.031h-3v-7.031z"></path>
</symbol>
<symbol id="icon-account_balance_wallet" viewBox="0 0 24 24">
<title>account_balance_wallet</title>
<path d="M15.984 13.5c0.844 0 1.5-0.656 1.5-1.5s-0.656-1.5-1.5-1.5-1.5 0.656-1.5 1.5 0.656 1.5 1.5 1.5zM12 15.984v-7.969h9.984v7.969h-9.984zM21 18v0.984c0 1.078-0.938 2.016-2.016 2.016h-13.969c-1.125 0-2.016-0.938-2.016-2.016v-13.969c0-1.078 0.891-2.016 2.016-2.016h13.969c1.078 0 2.016 0.938 2.016 2.016v0.984h-9c-1.125 0-2.016 0.938-2.016 2.016v7.969c0 1.078 0.891 2.016 2.016 2.016h9z"></path>
</symbol>
<symbol id="icon-account_box" viewBox="0 0 24 24">
<title>account_box</title>
<path d="M6 17.016v0.984h12v-0.984c0-2.016-3.984-3.094-6-3.094s-6 1.078-6 3.094zM15 9c0-1.641-1.359-3-3-3s-3 1.359-3 3 1.359 3 3 3 3-1.359 3-3zM3 5.016c0-1.078 0.891-2.016 2.016-2.016h13.969c1.078 0 2.016 0.938 2.016 2.016v13.969c0 1.078-0.938 2.016-2.016 2.016h-13.969c-1.125 0-2.016-0.938-2.016-2.016v-13.969z"></path>
</symbol>
<symbol id="icon-account_circle" viewBox="0 0 24 24">
<title>account_circle</title>
<path d="M12 19.219c2.484 0 4.688-1.313 6-3.234-0.047-1.969-4.031-3.094-6-3.094-2.016 0-5.953 1.125-6 3.094 1.313 1.922 3.516 3.234 6 3.234zM12 5.016c-1.641 0-3 1.359-3 3s1.359 3 3 3 3-1.359 3-3-1.359-3-3-3zM12 2.016c5.531 0 9.984 4.453 9.984 9.984s-4.453 9.984-9.984 9.984-9.984-4.453-9.984-9.984 4.453-9.984 9.984-9.984z"></path>
</symbol>
<symbol id="icon-adb" viewBox="0 0 24 24">
<title>adb</title>
<path d="M15 9c0.563 0 0.984-0.422 0.984-0.984s-0.422-1.031-0.984-1.031-0.984 0.469-0.984 1.031 0.422 0.984 0.984 0.984zM9 9c0.563 0 0.984-0.422 0.984-0.984s-0.422-1.031-0.984-1.031-0.984 0.469-0.984 1.031 0.422 0.984 0.984 0.984zM16.125 4.359c1.734 1.266 2.859 3.328 2.859 5.625v1.031h-13.969v-1.031c0-2.297 1.125-4.359 2.859-5.625l-2.109-2.109 0.844-0.797 2.297 2.297c0.938-0.469 1.969-0.75 3.094-0.75s2.156 0.281 3.094 0.75l2.297-2.297 0.844 0.797zM5.016 15.984v-3.984h13.969v3.984c0 3.891-3.094 7.031-6.984 7.031s-6.984-3.141-6.984-7.031z"></path>
</symbol>
<symbol id="icon-add" viewBox="0 0 24 24">
<title>add</title>
<path d="M18.984 12.984h-6v6h-1.969v-6h-6v-1.969h6v-6h1.969v6h6v1.969z"></path>
</symbol>
<symbol id="icon-add_a_photo" viewBox="0 0 24 24">
<title>add_a_photo</title>
<path d="M9.797 14.016c0-1.781 1.406-3.234 3.188-3.234s3.234 1.453 3.234 3.234-1.453 3.188-3.234 3.188-3.188-1.406-3.188-3.188zM12.984 18.984c2.766 0 5.016-2.203 5.016-4.969s-2.25-5.016-5.016-5.016-4.969 2.25-4.969 5.016 2.203 4.969 4.969 4.969zM6 9.984v-3h3v-3h6.984l1.828 2.016h3.188c1.078 0 2.016 0.938 2.016 2.016v12c0 1.078-0.938 1.969-2.016 1.969h-15.984c-1.078 0-2.016-0.891-2.016-1.969v-10.031h3zM3 3.984v-3h2.016v3h3v2.016h-3v3h-2.016v-3h-3v-2.016h3z"></path>
</symbol>
<symbol id="icon-alarm_add" viewBox="0 0 24 24">
<title>alarm_add</title>
<path d="M12.984 9v3h3v2.016h-3v3h-1.969v-3h-3v-2.016h3v-3h1.969zM12 20.016c3.891 0 6.984-3.141 6.984-7.031s-3.094-6.984-6.984-6.984-6.984 3.094-6.984 6.984 3.094 7.031 6.984 7.031zM12 3.984c4.969 0 9 4.031 9 9s-4.031 9-9 9-9-4.031-9-9 4.031-9 9-9zM21.984 5.719l-1.266 1.547-4.594-3.891 1.266-1.5zM7.875 3.375l-4.594 3.844-1.266-1.5 4.594-3.844z"></path>
</symbol>
<symbol id="icon-add_alert" viewBox="0 0 24 24">
<title>add_alert</title>
<path d="M15.984 13.031v-2.016h-3v-3h-1.969v3h-3v2.016h3v3h1.969v-3h3zM18.891 16.828l2.109 2.109v1.078h-18v-1.078l2.109-2.109v-5.813c0-3.234 2.25-6 5.297-6.703v-0.703c0-0.891 0.703-1.594 1.594-1.594s1.594 0.703 1.594 1.594v0.703c3.047 0.703 5.297 3.469 5.297 6.703v5.813zM10.031 21h3.938c0 1.078-0.891 2.016-1.969 2.016s-1.969-0.938-1.969-2.016z"></path>
</symbol>
<symbol id="icon-add_box" viewBox="0 0 24 24">
<title>add_box</title>
<path d="M17.016 12.984v-1.969h-4.031v-4.031h-1.969v4.031h-4.031v1.969h4.031v4.031h1.969v-4.031h4.031zM18.984 3c1.078 0 2.016 0.938 2.016 2.016v13.969c0 1.078-0.938 2.016-2.016 2.016h-13.969c-1.125 0-2.016-0.938-2.016-2.016v-13.969c0-1.078 0.891-2.016 2.016-2.016h13.969z"></path>
</symbol>
<symbol id="icon-add_circle" viewBox="0 0 24 24">
<title>add_circle</title>
<path d="M17.016 12.984v-1.969h-4.031v-4.031h-1.969v4.031h-4.031v1.969h4.031v4.031h1.969v-4.031h4.031zM12 2.016c5.531 0 9.984 4.453 9.984 9.984s-4.453 9.984-9.984 9.984-9.984-4.453-9.984-9.984 4.453-9.984 9.984-9.984z"></path>
</symbol>
<symbol id="icon-control_point" viewBox="0 0 24 24">
<title>control_point</title>
<path d="M12 20.016c4.406 0 8.016-3.609 8.016-8.016s-3.609-8.016-8.016-8.016-8.016 3.609-8.016 8.016 3.609 8.016 8.016 8.016zM12 2.016c5.531 0 9.984 4.453 9.984 9.984s-4.453 9.984-9.984 9.984-9.984-4.453-9.984-9.984 4.453-9.984 9.984-9.984zM12.984 6.984v4.031h4.031v1.969h-4.031v4.031h-1.969v-4.031h-4.031v-1.969h4.031v-4.031h1.969z"></path>
</symbol>
<symbol id="icon-add_location" viewBox="0 0 24 24">
<title>add_location</title>
<path d="M15.984 9.984v-1.969h-3v-3h-1.969v3h-3v1.969h3v3h1.969v-3h3zM12 2.016c3.844 0 6.984 3.141 6.984 6.984 0 5.25-6.984 12.984-6.984 12.984s-6.984-7.734-6.984-12.984c0-3.844 3.141-6.984 6.984-6.984z"></path>
</symbol>
<symbol id="icon-add_shopping_cart" viewBox="0 0 24 24">
<title>add_shopping_cart</title>
<path d="M7.172 14.766c0 0.141 0.094 0.234 0.234 0.234h11.578v2.016h-12c-1.078 0-1.969-0.938-1.969-2.016 0-0.328 0.094-0.656 0.234-0.938l1.359-2.484-3.609-7.594h-2.016v-1.969h3.281c0.633 1.32 1.258 2.648 1.875 3.984 0.798 1.67 1.584 3.353 2.391 5.016h7.031c1.284-2.341 2.591-4.659 3.844-7.031l1.734 0.984-3.844 6.984c-0.328 0.609-0.984 1.031-1.734 1.031h-7.453l-0.891 1.641zM17.016 18c1.078 0 1.969 0.938 1.969 2.016s-0.891 1.969-1.969 1.969-2.016-0.891-2.016-1.969 0.938-2.016 2.016-2.016zM6.984 18c1.078 0 2.016 0.938 2.016 2.016s-0.938 1.969-2.016 1.969-1.969-0.891-1.969-1.969 0.891-2.016 1.969-2.016zM11.016 9v-3h-3v-2.016h3v-3h1.969v3h3v2.016h-3v3h-1.969z"></path>
</symbol>
<symbol id="icon-queue" viewBox="0 0 24 24">
<title>queue</title>
<path d="M18.984 11.016v-2.016h-3.984v-3.984h-2.016v3.984h-3.984v2.016h3.984v3.984h2.016v-3.984h3.984zM20.016 2.016c1.078 0 1.969 0.891 1.969 1.969v12c0 1.078-0.891 2.016-1.969 2.016h-12c-1.078 0-2.016-0.938-2.016-2.016v-12c0-1.078 0.938-1.969 2.016-1.969h12zM3.984 6v14.016h14.016v1.969h-14.016c-1.078 0-1.969-0.891-1.969-1.969v-14.016h1.969z"></path>
</symbol>
<symbol id="icon-add_to_queue" viewBox="0 0 24 24">
<title>add_to_queue</title>
<path d="M15.984 9.984v2.016h-3v3h-1.969v-3h-3v-2.016h3v-3h1.969v3h3zM21 17.016v-12h-18v12h18zM21 3c1.078 0 2.016 0.891 2.016 2.016l-0.047 12c0 1.078-0.891 1.969-1.969 1.969h-5.016v2.016h-7.969v-2.016h-5.016c-1.125 0-2.016-0.891-2.016-1.969v-12c0-1.125 0.891-2.016 2.016-2.016h18z"></path>
</symbol>
<symbol id="icon-adjust" viewBox="0 0 24 24">
<title>adjust</title>
<path d="M15 12c0 1.641-1.359 3-3 3s-3-1.359-3-3 1.359-3 3-3 3 1.359 3 3zM12 20.016c4.406 0 8.016-3.609 8.016-8.016s-3.609-8.016-8.016-8.016-8.016 3.609-8.016 8.016 3.609 8.016 8.016 8.016zM12 2.016c5.531 0 9.984 4.453 9.984 9.984s-4.453 9.984-9.984 9.984-9.984-4.453-9.984-9.984 4.453-9.984 9.984-9.984z"></path>
</symbol>
<symbol id="icon-airline_seat_flat" viewBox="0 0 24 24">
<title>airline_seat_flat</title>
<path d="M7.125 12.094c-1.172 1.172-3.047 1.219-4.219 0.047s-1.219-3.047-0.047-4.219 3.047-1.219 4.219-0.047 1.219 3.047 0.047 4.219zM2.016 14.016h19.969v1.969h-6v2.016h-7.969v-2.016h-6v-1.969zM21.984 11.016v1.969h-12.984v-6h9c2.203 0 3.984 1.828 3.984 4.031z"></path>
</symbol>
<symbol id="icon-airline_seat_flat_angled" viewBox="0 0 24 24">
<title>airline_seat_flat_angled</title>
<path d="M7.313 10.219c-1.5 0.703-3.328 0.094-4.031-1.406s-0.094-3.328 1.406-4.031 3.328-0.094 4.031 1.406 0.094 3.328-1.406 4.031zM1.5 12.141l0.703-1.875 18.984 6.844-0.656 1.875-4.547-1.594v1.594h-7.969v-4.5zM22.266 14.297l-0.703 1.875-12.375-4.453 2.109-5.672 8.531 3.094c2.109 0.75 3.188 3.047 2.438 5.156z"></path>
</symbol>
<symbol id="icon-airline_seat_individual_suite" viewBox="0 0 24 24">
<title>airline_seat_individual_suite</title>
<path d="M18.984 6.984c2.203 0 4.031 1.828 4.031 4.031v6h-22.031v-10.031h2.016v7.031h8.016v-7.031h7.969zM6.984 12.984c-1.641 0-3-1.359-3-3s1.359-3 3-3 3 1.359 3 3-1.359 3-3 3z"></path>
</symbol>
<symbol id="icon-airline_seat_legroom_extra" viewBox="0 0 24 24">
<title>airline_seat_legroom_extra</title>
<path d="M22.828 17.25c0.422 0.75 0.047 1.688-0.703 2.063l-3.703 1.688-3.422-6.984h-6.984c-1.641 0-3-1.359-3-3v-8.016h6v6h3.516c0.75 0 1.453 0.422 1.781 1.125l3.375 6.984 1.125-0.516c0.75-0.328 1.641-0.047 2.016 0.656zM3.984 12c0 1.641 1.359 3 3 3h6v2.016h-6c-2.766 0-4.969-2.25-4.969-5.016v-9h1.969v9z"></path>
</symbol>
<symbol id="icon-airline_seat_legroom_normal" viewBox="0 0 24 24">
<title>airline_seat_legroom_normal</title>
<path d="M20.484 18c0.844 0 1.5 0.656 1.5 1.5s-0.656 1.5-1.5 1.5h-4.5v-6.984h-6.984c-1.641 0-3-1.359-3-3v-8.016h6v6h5.016c1.078 0 1.969 0.938 1.969 2.016v6.984h1.5zM5.016 12c0 1.641 1.359 3 3 3h6v2.016h-6c-2.766 0-5.016-2.25-5.016-5.016v-9h2.016v9z"></path>
</symbol>
<symbol id="icon-airline_seat_legroom_reduced" viewBox="0 0 24 24">
<title>airline_seat_legroom_reduced</title>
<path d="M5.016 12c0 1.641 1.359 3 3 3h3.984v2.016h-3.984c-2.766 0-5.016-2.25-5.016-5.016v-9h2.016v9zM19.969 19.219c0.188 0.938-0.516 1.781-1.453 1.781h-4.5v-3l0.984-3.984h-6c-1.641 0-3-1.359-3-3v-8.016h6v6h5.016c1.078 0 1.969 0.938 1.969 2.016l-1.969 6.984h1.406c0.75 0 1.406 0.516 1.547 1.219z"></path>
</symbol>
<symbol id="icon-airline_seat_recline_extra" viewBox="0 0 24 24">
<title>airline_seat_recline_extra</title>
<path d="M16.219 15l5.766 4.5-1.5 1.5-3.797-3h-6.844c-1.453 0-2.672-1.031-2.953-2.438l-1.359-5.906c-0.188-1.219 0.609-2.391 1.828-2.625h0.047c0.712-0.102 1.327 0.096 1.734 0.422l1.641 1.266c1.266 0.984 3.047 1.594 4.688 1.266v2.156c-1.875 0.328-3.563-0.328-5.156-1.219l1.031 4.078h4.875zM15.984 18.984v2.016h-7.031c-2.484 0-4.594-1.781-4.969-4.219l-1.969-9.797h1.969l1.969 9.469c0.234 1.453 1.5 2.531 3 2.531h7.031zM5.344 5.625c-0.891-0.656-1.078-1.875-0.469-2.766s1.875-1.125 2.766-0.516c0.891 0.656 1.125 1.922 0.516 2.813-0.656 0.891-1.922 1.078-2.813 0.469z"></path>
</symbol>
<symbol id="icon-airline_seat_recline_normal" viewBox="0 0 24 24">
<title>airline_seat_recline_normal</title>
<path d="M20.016 20.063l-1.453 1.453-3.516-3.516h-5.063c-1.641 0-3-1.359-3-3v-5.766c0-1.219 1.031-2.25 2.25-2.25h0.047c0.695 0 1.284 0.394 1.641 0.75l1.406 1.547c1.078 1.172 3.047 2.016 4.688 2.016v2.203c-1.922 0-4.125-1.031-5.531-2.203v3.703h3.469zM6 15.984c0 1.641 1.359 3 3 3h6v2.016h-6c-2.766 0-5.016-2.25-5.016-5.016v-9h2.016v9zM7.594 5.391c-0.797-0.797-0.797-2.016 0-2.813s2.016-0.797 2.813 0 0.797 2.016 0 2.813-2.016 0.797-2.813 0z"></path>
</symbol>
<symbol id="icon-flight" viewBox="0 0 24 24">
<title>flight</title>
<path d="M21 15.984l-8.016-2.484v5.484l2.016 1.5v1.5l-3.516-0.984-3.469 0.984v-1.5l1.969-1.5v-5.484l-7.969 2.484v-1.969l7.969-5.016v-5.484c0-0.844 0.656-1.5 1.5-1.5s1.5 0.656 1.5 1.5v5.484l8.016 5.016v1.969z"></path>
</symbol>
<symbol id="icon-airplanemode_inactive" viewBox="0 0 24 24">
<title>airplanemode_inactive</title>
<path d="M3 5.25l1.266-1.266 15.75 15.75-1.266 1.266-5.766-5.719v3.703l2.016 1.5v1.5l-3.516-0.984-3.469 0.984v-1.5l1.969-1.5v-5.484l-7.969 2.484v-1.969l5.953-3.75zM12.984 9l8.016 5.016v1.969l-3.188-0.984-7.828-7.828v-3.656c0-0.844 0.656-1.5 1.5-1.5s1.5 0.656 1.5 1.5v5.484z"></path>
</symbol>
<symbol id="icon-airplay" viewBox="0 0 24 24">
<title>airplay</title>
<path d="M21 3c1.078 0 2.016 0.938 2.016 2.016v12c0 1.078-0.938 1.969-2.016 1.969h-3.984v-1.969h3.984v-12h-18v12h3.984v1.969h-3.984c-1.078 0-2.016-0.891-2.016-1.969v-12c0-1.078 0.938-2.016 2.016-2.016h18zM6 21.984l6-6 6 6h-12z"></path>
</symbol>
<symbol id="icon-airport_shuttle" viewBox="0 0 24 24">
<title>airport_shuttle</title>
<path d="M15 11.016h5.016l-4.031-4.031h-0.984v4.031zM17.484 17.484c0.844 0 1.5-0.656 1.5-1.5s-0.656-1.5-1.5-1.5-1.5 0.656-1.5 1.5 0.656 1.5 1.5 1.5zM12.984 11.016v-4.031h-3.984v4.031h3.984zM6 17.484c0.844 0 1.5-0.656 1.5-1.5s-0.656-1.5-1.5-1.5-1.5 0.656-1.5 1.5 0.656 1.5 1.5 1.5zM3 11.016h3.984v-4.031h-3.984v4.031zM17.016 5.016l6 6v4.969h-2.531c0 1.641-1.359 3-3 3s-3-1.359-3-3h-5.484c0 1.641-1.359 3-3 3s-3-1.359-3-3h-2.016v-9c0-1.125 0.938-1.969 2.016-1.969h14.016z"></path>
</symbol>
<symbol id="icon-alarm_off" viewBox="0 0 24 24">
<title>alarm_off</title>
<path d="M8.016 3.281l-0.844 0.703-1.453-1.406 0.891-0.703zM16.453 18.375l-9.844-9.844c-0.984 1.219-1.594 2.766-1.594 4.453 0 3.891 3.094 7.031 6.984 7.031 1.688 0 3.234-0.656 4.453-1.641zM2.906 2.297c6.154 6.143 12.313 12.281 18.469 18.422l-1.266 1.266-2.203-2.203c-1.594 1.359-3.656 2.203-5.906 2.203-4.969 0-9-4.031-9-9 0-2.25 0.844-4.266 2.203-5.859l-0.797-0.797-1.125 0.938-1.406-1.453 1.125-0.891-1.359-1.359zM21.984 5.719l-1.266 1.547-4.594-3.891 1.266-1.5zM12 6c-0.844 0-1.641 0.141-2.391 0.422l-1.547-1.5c1.172-0.563 2.531-0.938 3.938-0.938 4.969 0 9 4.031 9 9 0 1.406-0.328 2.766-0.891 3.938l-1.547-1.5c0.281-0.75 0.422-1.594 0.422-2.438 0-3.891-3.094-6.984-6.984-6.984z"></path>
</symbol>
<symbol id="icon-alarm_on" viewBox="0 0 24 24">
<title>alarm_on</title>
<path d="M10.547 14.531l4.922-4.969 1.078 1.078-6 6-3.188-3.188 1.031-1.031zM12 20.016c3.891 0 6.984-3.141 6.984-7.031s-3.094-6.984-6.984-6.984-6.984 3.094-6.984 6.984 3.094 7.031 6.984 7.031zM12 3.984c4.969 0 9 4.031 9 9s-4.031 9-9 9-9-4.031-9-9 4.031-9 9-9zM7.875 3.375l-4.594 3.844-1.266-1.5 4.594-3.844zM21.984 5.719l-1.266 1.547-4.594-3.891 1.266-1.5z"></path>
</symbol>
<symbol id="icon-album" viewBox="0 0 24 24">
<title>album</title>
<path d="M12 11.016c0.563 0 0.984 0.422 0.984 0.984s-0.422 0.984-0.984 0.984-0.984-0.422-0.984-0.984 0.422-0.984 0.984-0.984zM12 16.5c2.484 0 4.5-2.016 4.5-4.5s-2.016-4.5-4.5-4.5-4.5 2.016-4.5 4.5 2.016 4.5 4.5 4.5zM12 2.016c5.531 0 9.984 4.453 9.984 9.984s-4.453 9.984-9.984 9.984-9.984-4.453-9.984-9.984 4.453-9.984 9.984-9.984z"></path>
</symbol>
<symbol id="icon-all_inclusive" viewBox="0 0 24 24">
<title>all_inclusive</title>
<path d="M18.609 6.609c3 0 5.391 2.438 5.391 5.391s-2.391 5.391-5.391 5.391c-1.453 0-2.813-0.563-3.844-1.594l-1.266-1.125 1.5-1.313 1.172 0.984c0.703 0.703 1.547 1.031 2.438 1.031 1.875 0 3.375-1.5 3.375-3.375s-1.5-3.375-3.375-3.375c-0.891 0-1.734 0.328-2.391 0.984-1.412 1.244-2.835 2.478-4.219 3.75l-2.813 2.484c-0.984 0.984-2.344 1.547-3.797 1.547-3 0-5.391-2.438-5.391-5.391s2.391-5.391 5.391-5.391c1.453 0 2.813 0.563 3.844 1.594l1.266 1.125-1.547 1.313-1.125-0.984c-0.703-0.703-1.547-1.031-2.438-1.031-1.875 0-3.375 1.5-3.375 3.375s1.5 3.375 3.375 3.375c0.891 0 1.734-0.328 2.391-0.984 1.412-1.244 2.835-2.478 4.219-3.75l2.813-2.484c0.984-0.984 2.344-1.547 3.797-1.547z"></path>
</symbol>
<symbol id="icon-all_out" viewBox="0 0 24 24">
<title>all_out</title>
<path d="M16.078 16.031c2.109-2.109 2.109-5.625 0-7.734s-5.625-2.109-7.734 0-2.109 5.625 0 7.734 5.625 2.109 7.734 0zM17.156 7.219c2.719 2.719 2.719 7.172 0 9.891s-7.172 2.719-9.891 0-2.719-7.172 0-9.891 7.172-2.719 9.891 0zM4.219 8.156v-3.984h3.984zM8.203 20.156h-3.984v-3.984zM20.203 16.172v3.984h-3.984zM16.219 4.172h3.984v3.984z"></path>
</symbol>
<symbol id="icon-android" viewBox="0 0 24 24">
<title>android</title>
<path d="M15 5.016v-1.031h-0.984v1.031h0.984zM9.984 5.016v-1.031h-0.984v1.031h0.984zM15.516 2.156c1.5 1.078 2.484 2.859 2.484 4.828h-12c0-1.969 0.938-3.75 2.438-4.828l-1.313-1.313c-0.188-0.188-0.188-0.516 0-0.703s0.516-0.188 0.703 0l1.5 1.5c0.797-0.422 1.734-0.656 2.672-0.656s1.828 0.234 2.625 0.656l1.5-1.5c0.188-0.188 0.516-0.188 0.703 0s0.188 0.516 0 0.703zM20.484 8.016c0.844 0 1.5 0.656 1.5 1.5v6.984c0 0.844-0.656 1.5-1.5 1.5s-1.5-0.656-1.5-1.5v-6.984c0-0.844 0.656-1.5 1.5-1.5zM3.516 8.016c0.844 0 1.5 0.656 1.5 1.5v6.984c0 0.844-0.656 1.5-1.5 1.5s-1.5-0.656-1.5-1.5v-6.984c0-0.844 0.656-1.5 1.5-1.5zM6 18v-9.984h12v9.984c0 0.563-0.422 0.984-0.984 0.984h-1.031v3.516c0 0.844-0.656 1.5-1.5 1.5s-1.5-0.656-1.5-1.5v-3.516h-1.969v3.516c0 0.844-0.656 1.5-1.5 1.5s-1.5-0.656-1.5-1.5v-3.516h-1.031c-0.563 0-0.984-0.422-0.984-0.984z"></path>
</symbol>
<symbol id="icon-announcement" viewBox="0 0 24 24">
<title>announcement</title>
<path d="M12.984 15v-2.016h-1.969v2.016h1.969zM12.984 11.016v-6h-1.969v6h1.969zM20.016 2.016c1.078 0 1.969 0.891 1.969 1.969v12c0 1.078-0.891 2.016-1.969 2.016h-14.016l-3.984 3.984v-18c0-1.078 0.891-1.969 1.969-1.969h16.031z"></path>
</symbol>
<symbol id="icon-apps" viewBox="0 0 24 24">
<title>apps</title>
<path d="M15.984 20.016v-4.031h4.031v4.031h-4.031zM15.984 14.016v-4.031h4.031v4.031h-4.031zM9.984 8.016v-4.031h4.031v4.031h-4.031zM15.984 3.984h4.031v4.031h-4.031v-4.031zM9.984 14.016v-4.031h4.031v4.031h-4.031zM3.984 14.016v-4.031h4.031v4.031h-4.031zM3.984 20.016v-4.031h4.031v4.031h-4.031zM9.984 20.016v-4.031h4.031v4.031h-4.031zM3.984 8.016v-4.031h4.031v4.031h-4.031z"></path>
</symbol>
<symbol id="icon-archive" viewBox="0 0 24 24">
<title>archive</title>
<path d="M5.109 5.016h13.781l-0.938-1.031h-12zM12 17.484l5.484-5.484h-3.469v-2.016h-4.031v2.016h-3.469zM20.531 5.25c0.281 0.328 0.469 0.797 0.469 1.266v12.469c0 1.078-0.938 2.016-2.016 2.016h-13.969c-1.078 0-2.016-0.938-2.016-2.016v-12.469c0-0.469 0.188-0.938 0.469-1.266l1.359-1.688c0.281-0.328 0.703-0.563 1.172-0.563h12c0.469 0 0.891 0.234 1.172 0.563z"></path>
</symbol>
<symbol id="icon-arrow_back" viewBox="0 0 24 24">
<title>arrow_back</title>
<path d="M20.016 11.016v1.969h-12.188l5.578 5.625-1.406 1.406-8.016-8.016 8.016-8.016 1.406 1.406-5.578 5.625h12.188z"></path>
</symbol>
<symbol id="icon-arrow_downward" viewBox="0 0 24 24">
<title>arrow_downward</title>
<path d="M20.016 12l-8.016 8.016-8.016-8.016 1.453-1.406 5.578 5.578v-12.188h1.969v12.188l5.625-5.578z"></path>
</symbol>
<symbol id="icon-arrow_drop_down" viewBox="0 0 24 24">
<title>arrow_drop_down</title>
<path d="M6.984 9.984h10.031l-5.016 5.016z"></path>
</symbol>
<symbol id="icon-arrow_drop_down_circle" viewBox="0 0 24 24">
<title>arrow_drop_down_circle</title>
<path d="M12 14.016l3.984-4.031h-7.969zM12 2.016c5.531 0 9.984 4.453 9.984 9.984s-4.453 9.984-9.984 9.984-9.984-4.453-9.984-9.984 4.453-9.984 9.984-9.984z"></path>
</symbol>
<symbol id="icon-arrow_drop_up" viewBox="0 0 24 24">
<title>arrow_drop_up</title>
<path d="M6.984 14.016l5.016-5.016 5.016 5.016h-10.031z"></path>
</symbol>
<symbol id="icon-arrow_forward" viewBox="0 0 24 24">
<title>arrow_forward</title>
<path d="M12 3.984l8.016 8.016-8.016 8.016-1.406-1.406 5.578-5.625h-12.188v-1.969h12.188l-5.578-5.625z"></path>
</symbol>
<symbol id="icon-arrow_upward" viewBox="0 0 24 24">
<title>arrow_upward</title>
<path d="M3.984 12l8.016-8.016 8.016 8.016-1.453 1.406-5.578-5.578v12.188h-1.969v-12.188l-5.625 5.578z"></path>
</symbol>
<symbol id="icon-art_track" viewBox="0 0 24 24">
<title>art_track</title>
<path d="M10.5 15l-2.25-3-1.734 2.25-1.266-1.5-1.734 2.25h6.984zM12 9v6c0 1.078-0.938 2.016-2.016 2.016h-6c-1.078 0-1.969-0.938-1.969-2.016v-6c0-1.078 0.891-2.016 1.969-2.016h6c1.078 0 2.016 0.938 2.016 2.016zM14.016 17.016v-2.016h7.969v2.016h-7.969zM21.984 6.984v2.016h-7.969v-2.016h7.969zM21.984 12.984h-7.969v-1.969h7.969v1.969z"></path>
</symbol>
<symbol id="icon-aspect_ratio" viewBox="0 0 24 24">
<title>aspect_ratio</title>
<path d="M21 19.031v-14.063h-18v14.063h18zM21 3c1.078 0 2.016 0.938 2.016 2.016v13.969c0 1.078-0.938 2.016-2.016 2.016h-18c-1.078 0-2.016-0.938-2.016-2.016v-13.969c0-1.078 0.938-2.016 2.016-2.016h18zM6.984 9v3h-1.969v-5.016h4.969v2.016h-3zM18.984 12v5.016h-4.969v-2.016h3v-3h1.969z"></path>
</symbol>
<symbol id="icon-poll" viewBox="0 0 24 24">
<title>poll</title>
<path d="M17.016 17.016v-4.031h-2.016v4.031h2.016zM12.984 17.016v-10.031h-1.969v10.031h1.969zM9 17.016v-7.031h-2.016v7.031h2.016zM18.984 3c1.078 0 2.016 0.938 2.016 2.016v13.969c0 1.078-0.938 2.016-2.016 2.016h-13.969c-1.078 0-2.016-0.938-2.016-2.016v-13.969c0-1.078 0.938-2.016 2.016-2.016h13.969z"></path>
</symbol>
<symbol id="icon-assignment" viewBox="0 0 24 24">
<title>assignment</title>
<path d="M17.016 9v-2.016h-10.031v2.016h10.031zM17.016 12.984v-1.969h-10.031v1.969h10.031zM14.016 17.016v-2.016h-7.031v2.016h7.031zM12 3c-0.563 0-0.984 0.422-0.984 0.984s0.422 1.031 0.984 1.031 0.984-0.469 0.984-1.031-0.422-0.984-0.984-0.984zM18.984 3c1.078 0 2.016 0.938 2.016 2.016v13.969c0 1.078-0.938 2.016-2.016 2.016h-13.969c-1.078 0-2.016-0.938-2.016-2.016v-13.969c0-1.078 0.938-2.016 2.016-2.016h4.172c0.422-1.172 1.5-2.016 2.813-2.016s2.391 0.844 2.813 2.016h4.172z"></path>
</symbol>
<symbol id="icon-assignment_ind" viewBox="0 0 24 24">
<title>assignment_ind</title>
<path d="M18 18.984v-1.406c0-2.016-3.984-3.094-6-3.094s-6 1.078-6 3.094v1.406h12zM12 6.984c-1.641 0-3 1.359-3 3s1.359 3 3 3 3-1.359 3-3-1.359-3-3-3zM12 3c-0.563 0-0.984 0.422-0.984 0.984s0.422 1.031 0.984 1.031 0.984-0.469 0.984-1.031-0.422-0.984-0.984-0.984zM18.984 3c1.078 0 2.016 0.938 2.016 2.016v13.969c0 1.078-0.938 2.016-2.016 2.016h-13.969c-1.078 0-2.016-0.938-2.016-2.016v-13.969c0-1.078 0.938-2.016 2.016-2.016h4.172c0.422-1.172 1.5-2.016 2.813-2.016s2.391 0.844 2.813 2.016h4.172z"></path>
</symbol>
<symbol id="icon-assignment_late" viewBox="0 0 24 24">
<title>assignment_late</title>
<path d="M12 5.016c0.563 0 0.984-0.469 0.984-1.031s-0.422-0.984-0.984-0.984-0.984 0.422-0.984 0.984 0.422 1.031 0.984 1.031zM12.984 14.016v-6h-1.969v6h1.969zM12.984 18v-2.016h-1.969v2.016h1.969zM18.984 3c1.078 0 2.016 0.938 2.016 2.016v13.969c0 1.078-0.938 2.016-2.016 2.016h-13.969c-1.078 0-2.016-0.938-2.016-2.016v-13.969c0-1.078 0.938-2.016 2.016-2.016h4.172c0.422-1.172 1.5-2.016 2.813-2.016s2.391 0.844 2.813 2.016h4.172z"></path>
</symbol>
<symbol id="icon-assignment_return" viewBox="0 0 24 24">
<title>assignment_return</title>
<path d="M15.984 15v-3.984h-3.984v-3l-5.016 4.969 5.016 5.016v-3h3.984zM12 3c-0.563 0-0.984 0.422-0.984 0.984s0.422 1.031 0.984 1.031 0.984-0.469 0.984-1.031-0.422-0.984-0.984-0.984zM18.984 3c1.078 0 2.016 0.938 2.016 2.016v13.969c0 1.078-0.938 2.016-2.016 2.016h-13.969c-1.078 0-2.016-0.938-2.016-2.016v-13.969c0-1.078 0.938-2.016 2.016-2.016h4.172c0.422-1.172 1.5-2.016 2.813-2.016s2.391 0.844 2.813 2.016h4.172z"></path>
</symbol>
<symbol id="icon-assignment_returned" viewBox="0 0 24 24">
<title>assignment_returned</title>
<path d="M12 18l5.016-5.016h-3v-3.984h-4.031v3.984h-3zM12 3c-0.563 0-0.984 0.422-0.984 0.984s0.422 1.031 0.984 1.031 0.984-0.469 0.984-1.031-0.422-0.984-0.984-0.984zM18.984 3c1.078 0 2.016 0.938 2.016 2.016v13.969c0 1.078-0.938 2.016-2.016 2.016h-13.969c-1.078 0-2.016-0.938-2.016-2.016v-13.969c0-1.078 0.938-2.016 2.016-2.016h4.172c0.422-1.172 1.5-2.016 2.813-2.016s2.391 0.844 2.813 2.016h4.172z"></path>
</symbol>
<symbol id="icon-assignment_turned_in" viewBox="0 0 24 24">
<title>assignment_turned_in</title>
<path d="M9.984 17.016l8.016-8.016-1.406-1.406-6.609 6.563-2.578-2.578-1.406 1.406zM12 3c-0.563 0-0.984 0.422-0.984 0.984s0.422 1.031 0.984 1.031 0.984-0.469 0.984-1.031-0.422-0.984-0.984-0.984zM18.984 3c1.078 0 2.016 0.938 2.016 2.016v13.969c0 1.078-0.938 2.016-2.016 2.016h-13.969c-1.078 0-2.016-0.938-2.016-2.016v-13.969c0-1.078 0.938-2.016 2.016-2.016h4.172c0.422-1.172 1.5-2.016 2.813-2.016s2.391 0.844 2.813 2.016h4.172z"></path>
</symbol>
<symbol id="icon-assistant" viewBox="0 0 24 24">
<title>assistant</title>
<path d="M13.875 12.891l4.125-1.875-4.125-1.875-1.875-4.125-1.875 4.125-4.125 1.875 4.125 1.875 1.875 4.125zM18.984 2.016c1.078 0 2.016 0.891 2.016 1.969v14.016c0 1.078-0.938 2.016-2.016 2.016h-3.984l-3 3-3-3h-3.984c-1.078 0-2.016-0.938-2.016-2.016v-14.016c0-1.078 0.938-1.969 2.016-1.969h13.969z"></path>
</symbol>
<symbol id="icon-flag" viewBox="0 0 24 24">
<title>flag</title>
<path d="M14.391 6h5.625v9.984h-7.031l-0.375-1.969h-5.625v6.984h-1.969v-17.016h9z"></path>
</symbol>
<symbol id="icon-attach_file" viewBox="0 0 24 24">
<title>attach_file</title>
<path d="M16.5 6h1.5v11.484c0 3.047-2.438 5.531-5.484 5.531s-5.531-2.484-5.531-5.531v-12.469c0-2.203 1.828-4.031 4.031-4.031s3.984 1.828 3.984 4.031v10.5c0 1.359-1.125 2.484-2.484 2.484s-2.531-1.125-2.531-2.484v-9.516h1.5v9.516c0 0.563 0.469 0.984 1.031 0.984s0.984-0.422 0.984-0.984v-10.5c0-1.359-1.125-2.531-2.484-2.531s-2.531 1.172-2.531 2.531v12.469c0 2.203 1.828 4.031 4.031 4.031s3.984-1.828 3.984-4.031v-11.484z"></path>
</symbol>
<symbol id="icon-attach_money" viewBox="0 0 24 24">
<title>attach_money</title>
<path d="M11.813 10.922c2.25 0.609 4.688 1.5 4.688 4.359 0 2.063-1.547 3.188-3.516 3.563v2.156h-3v-2.156c-1.922-0.422-3.516-1.641-3.656-3.844h2.203c0.094 1.172 0.891 2.109 2.953 2.109 2.203 0 2.719-1.078 2.719-1.781 0-0.938-0.516-1.828-3-2.438-2.813-0.656-4.688-1.828-4.688-4.125 0-1.922 1.547-3.188 3.469-3.609v-2.156h3v2.203c2.109 0.516 3.188 2.063 3.234 3.797h-2.203c-0.047-1.266-0.75-2.109-2.531-2.109-1.688 0-2.672 0.797-2.672 1.875 0 0.938 0.75 1.547 3 2.156z"></path>
</symbol>
<symbol id="icon-attachment" viewBox="0 0 24 24">
<title>attachment</title>
<path d="M2.016 12.516c0-3.047 2.438-5.531 5.484-5.531h10.5c2.203 0 3.984 1.828 3.984 4.031s-1.781 3.984-3.984 3.984h-8.484c-1.359 0-2.531-1.125-2.531-2.484s1.172-2.531 2.531-2.531h7.5v2.016h-7.594c-0.563 0-0.563 0.984 0 0.984h8.578c1.078 0 2.016-0.891 2.016-1.969s-0.938-2.016-2.016-2.016h-10.5c-1.922 0-3.516 1.594-3.516 3.516s1.594 3.469 3.516 3.469h9.516v2.016h-9.516c-3.047 0-5.484-2.438-5.484-5.484z"></path>
</symbol>
<symbol id="icon-audiotrack" viewBox="0 0 24 24">
<title>audiotrack</title>
<path d="M12 3h6.984v3h-3.984v11.016h-0.047c-0.234 2.25-2.156 3.984-4.453 3.984-2.484 0-4.5-2.016-4.5-4.5s2.016-4.5 4.5-4.5c0.516 0 1.031 0.094 1.5 0.281v-9.281z"></path>
</symbol>
<symbol id="icon-autorenew" viewBox="0 0 24 24">
<title>autorenew</title>
<path d="M18.75 7.734c0.797 1.219 1.266 2.719 1.266 4.266 0 4.406-3.609 8.016-8.016 8.016v3l-3.984-4.031 3.984-3.984v3c3.328 0 6-2.672 6-6 0-1.031-0.281-1.969-0.703-2.813zM12 6c-3.328 0-6 2.672-6 6 0 1.031 0.234 1.969 0.703 2.813l-1.453 1.453c-0.797-1.219-1.266-2.719-1.266-4.266 0-4.406 3.609-8.016 8.016-8.016v-3l3.984 4.031-3.984 3.984v-3z"></path>
</symbol>
<symbol id="icon-av_timer" viewBox="0 0 24 24">
<title>av_timer</title>
<path d="M6 12c0-0.563 0.422-0.984 0.984-0.984s1.031 0.422 1.031 0.984-0.469 0.984-1.031 0.984-0.984-0.422-0.984-0.984zM18 12c0 0.563-0.422 0.984-0.984 0.984s-1.031-0.422-1.031-0.984 0.469-0.984 1.031-0.984 0.984 0.422 0.984 0.984zM11.016 3h0.984c4.969 0 9 4.031 9 9s-4.031 9-9 9-9-4.031-9-9c0-2.953 1.406-5.531 3.609-7.172v-0.047l6.797 6.797-1.406 1.406-5.438-5.391c-0.984 1.219-1.547 2.719-1.547 4.406 0 3.891 3.094 6.984 6.984 6.984s6.984-3.094 6.984-6.984c0-3.516-2.625-6.469-6-6.938v1.922h-1.969v-3.984zM11.016 17.016c0-0.563 0.422-1.031 0.984-1.031s0.984 0.469 0.984 1.031-0.422 0.984-0.984 0.984-0.984-0.422-0.984-0.984z"></path>
</symbol>
<symbol id="icon-backspace" viewBox="0 0 24 24">
<title>backspace</title>
<path d="M18.984 15.609l-3.563-3.609 3.563-3.609-1.406-1.406-3.563 3.609-3.609-3.609-1.406 1.406 3.609 3.609-3.609 3.609 1.406 1.406 3.609-3.609 3.563 3.609zM21.984 3c1.078 0 2.016 0.938 2.016 2.016v13.969c0 1.078-0.938 2.016-2.016 2.016h-15c-0.703 0-1.219-0.375-1.594-0.891l-5.391-8.109 5.391-8.109c0.375-0.516 0.891-0.891 1.594-0.891h15z"></path>
</symbol>
<symbol id="icon-cloud_upload" viewBox="0 0 24 24">
<title>cloud_upload</title>
<path d="M14.016 12.984h3l-5.016-4.969-5.016 4.969h3v4.031h4.031v-4.031zM19.359 10.031c2.578 0.188 4.641 2.344 4.641 4.969 0 2.766-2.25 5.016-5.016 5.016h-12.984c-3.328 0-6-2.672-6-6 0-3.094 2.344-5.625 5.344-5.953 1.266-2.391 3.75-4.078 6.656-4.078 3.656 0 6.656 2.578 7.359 6.047z"></path>
</symbol>
<symbol id="icon-battery_alert" viewBox="0 0 24 24">
<title>battery_alert</title>
<path d="M12.984 14.016v-5.016h-1.969v5.016h1.969zM12.984 18v-2.016h-1.969v2.016h1.969zM15.656 3.984c0.75 0 1.359 0.609 1.359 1.359v15.328c0 0.75-0.609 1.313-1.359 1.313h-7.313c-0.75 0-1.359-0.563-1.359-1.313v-15.328c0-0.75 0.609-1.359 1.359-1.359h1.641v-1.969h4.031v1.969h1.641z"></path>
</symbol>
<symbol id="icon-battery_charging_full" viewBox="0 0 24 24">
<title>battery_charging_full</title>
<path d="M11.016 20.016l3.984-7.5h-2.016v-5.531l-3.984 7.5h2.016v5.531zM15.656 3.984c0.75 0 1.359 0.609 1.359 1.359v15.328c0 0.75-0.609 1.313-1.359 1.313h-7.313c-0.75 0-1.359-0.563-1.359-1.313v-15.328c0-0.75 0.609-1.359 1.359-1.359h1.641v-1.969h4.031v1.969h1.641z"></path>
</symbol>
<symbol id="icon-battery_std" viewBox="0 0 24 24">
<title>battery_std</title>
<path d="M15.656 3.984c0.75 0 1.359 0.609 1.359 1.359v15.328c0 0.75-0.609 1.313-1.359 1.313h-7.313c-0.75 0-1.359-0.563-1.359-1.313v-15.328c0-0.75 0.609-1.359 1.359-1.359h1.641v-1.969h4.031v1.969h1.641z"></path>
</symbol>
<symbol id="icon-battery_unknown" viewBox="0 0 24 24">
<title>battery_unknown</title>
<path d="M14.297 12.703c0.422-0.422 0.703-1.031 0.703-1.688 0-1.641-1.359-3-3-3s-3 1.359-3 3h1.5c0-0.844 0.656-1.5 1.5-1.5s1.5 0.656 1.5 1.5c0 0.422-0.141 0.75-0.422 1.031l-0.938 0.938c-0.469 0.469-0.938 1.172-0.938 2.016h1.594c0-0.469 0.375-1.125 0.844-1.594 0.281-0.281 0.656-0.703 0.656-0.703zM12.938 17.953v-1.922h-1.875v1.922h1.875zM15.656 3.984c0.75 0 1.359 0.609 1.359 1.359v15.328c0 0.75-0.609 1.313-1.359 1.313h-7.313c-0.75 0-1.359-0.563-1.359-1.313v-15.328c0-0.75 0.609-1.359 1.359-1.359h1.641v-1.969h4.031v1.969h1.641z"></path>
</symbol>
<symbol id="icon-beach_access" viewBox="0 0 24 24">
<title>beach_access</title>
<path d="M17.438 8.813c-3.134-3.134-7.481-4.167-11.411-2.868 2.99-0.341 6.843 1.206 9.958 4.321l-5.719 5.719c-3.115-3.115-4.662-6.968-4.321-9.958-1.299 3.931-0.265 8.278 2.868 11.411l-2.859 2.859c-3.935-3.935-3.938-10.352-0.006-14.29 0.006-0.052 0.008-0.054 0.060-0.060 3.938-3.931 10.355-3.929 14.29 0.006zM13.125 14.578l1.453-1.453 6.422 6.469-1.453 1.406z"></path>
</symbol>
<symbol id="icon-beenhere" viewBox="0 0 24 24">
<title>beenhere</title>
<path d="M9.984 15.984l9-9-1.406-1.406-7.594 7.594-3.563-3.563-1.406 1.406zM18.984 0.984c1.078 0 2.016 0.938 2.016 2.016v12.938c0 0.703-0.375 1.266-0.891 1.641l-8.109 5.438-8.109-5.438c-0.516-0.375-0.891-0.938-0.891-1.641v-12.938c0-1.078 0.938-2.016 2.016-2.016h13.969z"></path>
</symbol>
<symbol id="icon-block" viewBox="0 0 24 24">
<title>block</title>
<path d="M12 20.016c4.406 0 8.016-3.609 8.016-8.016 0-1.828-0.609-3.563-1.688-4.922l-11.25 11.25c1.359 1.078 3.094 1.688 4.922 1.688zM3.984 12c0 1.828 0.609 3.563 1.688 4.922l11.25-11.25c-1.359-1.078-3.094-1.688-4.922-1.688-4.406 0-8.016 3.609-8.016 8.016zM12 2.016c5.531 0 9.984 4.453 9.984 9.984s-4.453 9.984-9.984 9.984-9.984-4.453-9.984-9.984 4.453-9.984 9.984-9.984z"></path>
</symbol>
<symbol id="icon-bluetooth" viewBox="0 0 24 24">
<title>bluetooth</title>
<path d="M14.859 16.313l-1.875-1.922v3.797zM12.984 5.813v3.797l1.875-1.922zM17.719 7.688l-4.313 4.313 4.313 4.313-5.719 5.672h-0.984v-7.594l-4.594 4.594-1.406-1.406 5.578-5.578-5.578-5.578 1.406-1.406 4.594 4.594v-7.594h0.984z"></path>
</symbol>
<symbol id="icon-bluetooth_searching" viewBox="0 0 24 24">
<title>bluetooth_searching</title>
<path d="M12.891 16.313l-1.875-1.922v3.797zM11.016 5.813v3.797l1.875-1.922zM15.703 7.688l-4.313 4.313 4.313 4.313-5.719 5.672h-0.984v-7.594l-4.594 4.594-1.406-1.406 5.578-5.578-5.578-5.578 1.406-1.406 4.594 4.594v-7.594h0.984zM19.547 6.703c0.938 1.5 1.453 3.328 1.453 5.203 0 1.969-0.563 3.75-1.547 5.297l-1.172-1.172c0.609-1.219 0.984-2.578 0.984-4.031s-0.375-2.813-0.984-4.031zM14.25 12l2.297-2.297c0.281 0.703 0.469 1.5 0.469 2.297s-0.188 1.641-0.469 2.344z"></path>
</symbol>
<symbol id="icon-bluetooth_connected" viewBox="0 0 24 24">
<title>bluetooth_connected</title>
<path d="M18.984 9.984l2.016 2.016-2.016 2.016-1.969-2.016zM14.859 16.313l-1.875-1.922v3.797zM12.984 5.813v3.797l1.875-1.922zM17.719 7.688l-4.313 4.313 4.313 4.313-5.719 5.672h-0.984v-7.594l-4.594 4.594-1.406-1.406 5.578-5.578-5.578-5.578 1.406-1.406 4.594 4.594v-7.594h0.984zM6.984 12l-1.969 2.016-2.016-2.016 2.016-2.016z"></path>
</symbol>
<symbol id="icon-bluetooth_disabled" viewBox="0 0 24 24">
<title>bluetooth_disabled</title>
<path d="M12.984 18.188l1.875-1.875-1.875-1.922v3.797zM5.391 3.984l14.625 14.625-1.406 1.406-2.297-2.297-4.313 4.266h-0.984v-7.594l-4.594 4.594-1.406-1.406 5.578-5.578-6.609-6.609zM12.984 5.813v3.234l-1.969-2.016v-5.016h0.984l5.719 5.672-3.047 3.047-1.406-1.406 1.594-1.641z"></path>
</symbol>
<symbol id="icon-blur_circular" viewBox="0 0 24 24">
<title>blur_circular</title>
<path d="M14.016 12.984c0.563 0 0.984 0.469 0.984 1.031s-0.422 0.984-0.984 0.984-1.031-0.422-1.031-0.984 0.469-1.031 1.031-1.031zM14.016 16.5c0.281 0 0.469 0.234 0.469 0.516s-0.188 0.469-0.469 0.469-0.516-0.188-0.516-0.469 0.234-0.516 0.516-0.516zM12 20.016c4.406 0 8.016-3.609 8.016-8.016s-3.609-8.016-8.016-8.016-8.016 3.609-8.016 8.016 3.609 8.016 8.016 8.016zM12 2.016c5.531 0 9.984 4.453 9.984 9.984s-4.453 9.984-9.984 9.984-9.984-4.453-9.984-9.984 4.453-9.984 9.984-9.984zM17.016 9.516c0.281 0 0.469 0.188 0.469 0.469s-0.188 0.516-0.469 0.516-0.516-0.234-0.516-0.516 0.234-0.469 0.516-0.469zM17.016 13.5c0.281 0 0.469 0.234 0.469 0.516s-0.188 0.469-0.469 0.469-0.516-0.188-0.516-0.469 0.234-0.516 0.516-0.516zM14.016 7.5c-0.281 0-0.516-0.234-0.516-0.516s0.234-0.469 0.516-0.469 0.469 0.188 0.469 0.469-0.188 0.516-0.469 0.516zM14.016 9c0.563 0 0.984 0.422 0.984 0.984s-0.422 1.031-0.984 1.031-1.031-0.469-1.031-1.031 0.469-0.984 1.031-0.984zM9.984 7.5c-0.281 0-0.469-0.234-0.469-0.516s0.188-0.469 0.469-0.469 0.516 0.188 0.516 0.469-0.234 0.516-0.516 0.516zM6.984 13.5c0.281 0 0.516 0.234 0.516 0.516s-0.234 0.469-0.516 0.469-0.469-0.188-0.469-0.469 0.188-0.516 0.469-0.516zM9.984 16.5c0.281 0 0.516 0.234 0.516 0.516s-0.234 0.469-0.516 0.469-0.469-0.188-0.469-0.469 0.188-0.516 0.469-0.516zM6.984 9.516c0.281 0 0.516 0.188 0.516 0.469s-0.234 0.516-0.516 0.516-0.469-0.234-0.469-0.516 0.188-0.469 0.469-0.469zM9.984 12.984c0.563 0 1.031 0.469 1.031 1.031s-0.469 0.984-1.031 0.984-0.984-0.422-0.984-0.984 0.422-1.031 0.984-1.031zM9.984 9c0.563 0 1.031 0.422 1.031 0.984s-0.469 1.031-1.031 1.031-0.984-0.469-0.984-1.031 0.422-0.984 0.984-0.984z"></path>
</symbol>
<symbol id="icon-blur_linear" viewBox="0 0 24 24">
<title>blur_linear</title>
<path d="M12.984 17.016c-0.563 0-0.984-0.469-0.984-1.031s0.422-0.984 0.984-0.984 1.031 0.422 1.031 0.984-0.469 1.031-1.031 1.031zM12.984 12.984c-0.563 0-0.984-0.422-0.984-0.984s0.422-0.984 0.984-0.984 1.031 0.422 1.031 0.984-0.469 0.984-1.031 0.984zM12.984 9c-0.563 0-0.984-0.422-0.984-0.984s0.422-1.031 0.984-1.031 1.031 0.469 1.031 1.031-0.469 0.984-1.031 0.984zM17.016 12.516c-0.281 0-0.516-0.234-0.516-0.516s0.234-0.516 0.516-0.516 0.469 0.234 0.469 0.516-0.188 0.516-0.469 0.516zM17.016 8.484c-0.281 0-0.516-0.188-0.516-0.469s0.234-0.516 0.516-0.516 0.469 0.234 0.469 0.516-0.188 0.469-0.469 0.469zM3 3h18v2.016h-18v-2.016zM17.016 16.5c-0.281 0-0.516-0.234-0.516-0.516s0.234-0.469 0.516-0.469 0.469 0.188 0.469 0.469-0.188 0.516-0.469 0.516zM9 17.016c-0.563 0-0.984-0.469-0.984-1.031s0.422-0.984 0.984-0.984 0.984 0.422 0.984 0.984-0.422 1.031-0.984 1.031zM5.016 13.5c-0.844 0-1.5-0.656-1.5-1.5s0.656-1.5 1.5-1.5 1.5 0.656 1.5 1.5-0.656 1.5-1.5 1.5zM5.016 9.516c-0.844 0-1.5-0.656-1.5-1.5s0.656-1.5 1.5-1.5 1.5 0.656 1.5 1.5-0.656 1.5-1.5 1.5zM3 21v-2.016h18v2.016h-18zM9 9c-0.563 0-0.984-0.422-0.984-0.984s0.422-1.031 0.984-1.031 0.984 0.469 0.984 1.031-0.422 0.984-0.984 0.984zM9 12.984c-0.563 0-0.984-0.422-0.984-0.984s0.422-0.984 0.984-0.984 0.984 0.422 0.984 0.984-0.422 0.984-0.984 0.984zM5.016 17.484c-0.844 0-1.5-0.656-1.5-1.5s0.656-1.5 1.5-1.5 1.5 0.656 1.5 1.5-0.656 1.5-1.5 1.5z"></path>
</symbol>
<symbol id="icon-blur_off" viewBox="0 0 24 24">
<title>blur_off</title>
<path d="M3 13.5c0.281 0 0.516 0.234 0.516 0.516s-0.234 0.469-0.516 0.469-0.516-0.188-0.516-0.469 0.234-0.516 0.516-0.516zM6 17.016c0.563 0 0.984 0.422 0.984 0.984s-0.422 0.984-0.984 0.984-0.984-0.422-0.984-0.984 0.422-0.984 0.984-0.984zM9.984 20.484c0.281 0 0.516 0.234 0.516 0.516s-0.234 0.516-0.516 0.516-0.469-0.234-0.469-0.516 0.188-0.516 0.469-0.516zM3 9.516c0.281 0 0.516 0.188 0.516 0.469s-0.234 0.516-0.516 0.516-0.516-0.234-0.516-0.516 0.234-0.469 0.516-0.469zM6 12.984c0.563 0 0.984 0.469 0.984 1.031s-0.422 0.984-0.984 0.984-0.984-0.422-0.984-0.984 0.422-1.031 0.984-1.031zM21 13.5c0.281 0 0.516 0.234 0.516 0.516s-0.234 0.469-0.516 0.469-0.516-0.188-0.516-0.469 0.234-0.516 0.516-0.516zM9.984 17.016c0.563 0 1.031 0.422 1.031 0.984s-0.469 0.984-1.031 0.984-0.984-0.422-0.984-0.984 0.422-0.984 0.984-0.984zM2.484 5.25l1.266-1.266 16.266 16.266-1.313 1.266-3.75-3.797c0.047 0.094 0.047 0.188 0.047 0.281 0 0.563-0.422 0.984-0.984 0.984s-1.031-0.422-1.031-0.984 0.469-0.984 1.031-0.984c0.094 0 0.188 0 0.281 0.047l-2.813-2.813c-0.094 0.703-0.75 1.266-1.5 1.266-0.844 0-1.5-0.656-1.5-1.5 0-0.75 0.563-1.406 1.266-1.5l-2.813-2.813c0.047 0.094 0.047 0.188 0.047 0.281 0 0.563-0.422 1.031-0.984 1.031s-0.984-0.469-0.984-1.031 0.422-0.984 0.984-0.984l0.281 0.047zM14.016 20.484c0.281 0 0.469 0.234 0.469 0.516s-0.188 0.516-0.469 0.516-0.516-0.234-0.516-0.516 0.234-0.516 0.516-0.516zM18 6.984c-0.563 0-0.984-0.422-0.984-0.984s0.422-0.984 0.984-0.984 0.984 0.422 0.984 0.984-0.422 0.984-0.984 0.984zM18 11.016c-0.563 0-0.984-0.469-0.984-1.031s0.422-0.984 0.984-0.984 0.984 0.422 0.984 0.984-0.422 1.031-0.984 1.031zM18 15c-0.563 0-0.984-0.422-0.984-0.984s0.422-1.031 0.984-1.031 0.984 0.469 0.984 1.031-0.422 0.984-0.984 0.984zM9.984 6.984c-0.563 0-0.984-0.422-0.984-0.984s0.422-0.984 0.984-0.984 1.031 0.422 1.031 0.984-0.469 0.984-1.031 0.984zM21 10.5c-0.281 0-0.516-0.234-0.516-0.516s0.234-0.469 0.516-0.469 0.516 0.188 0.516 0.469-0.234 0.516-0.516 0.516zM9.984 3.516c-0.281 0-0.469-0.234-0.469-0.516s0.188-0.516 0.469-0.516 0.516 0.234 0.516 0.516-0.234 0.516-0.516 0.516zM14.016 3.516c-0.281 0-0.516-0.234-0.516-0.516s0.234-0.516 0.516-0.516 0.469 0.234 0.469 0.516-0.188 0.516-0.469 0.516zM13.781 11.484c-0.656-0.094-1.172-0.609-1.266-1.266v-0.234c0-0.844 0.656-1.5 1.5-1.5s1.5 0.656 1.5 1.5-0.656 1.5-1.5 1.5h-0.234zM14.016 6.984c-0.563 0-1.031-0.422-1.031-0.984s0.469-0.984 1.031-0.984 0.984 0.422 0.984 0.984-0.422 0.984-0.984 0.984z"></path>
</symbol>
<symbol id="icon-blur_on" viewBox="0 0 24 24">
<title>blur_on</title>
<path d="M14.016 8.484c0.844 0 1.5 0.656 1.5 1.5s-0.656 1.5-1.5 1.5-1.5-0.656-1.5-1.5 0.656-1.5 1.5-1.5zM14.016 12.516c0.844 0 1.5 0.656 1.5 1.5s-0.656 1.5-1.5 1.5-1.5-0.656-1.5-1.5 0.656-1.5 1.5-1.5zM9.984 17.016c0.563 0 1.031 0.422 1.031 0.984s-0.469 0.984-1.031 0.984-0.984-0.422-0.984-0.984 0.422-0.984 0.984-0.984zM9.984 8.484c0.844 0 1.5 0.656 1.5 1.5s-0.656 1.5-1.5 1.5-1.5-0.656-1.5-1.5 0.656-1.5 1.5-1.5zM14.016 20.484c0.281 0 0.469 0.234 0.469 0.516s-0.188 0.516-0.469 0.516-0.516-0.234-0.516-0.516 0.234-0.516 0.516-0.516zM14.016 17.016c0.563 0 0.984 0.422 0.984 0.984s-0.422 0.984-0.984 0.984-1.031-0.422-1.031-0.984 0.469-0.984 1.031-0.984zM21 13.5c0.281 0 0.516 0.234 0.516 0.516s-0.234 0.469-0.516 0.469-0.516-0.188-0.516-0.469 0.234-0.516 0.516-0.516zM18 5.016c0.563 0 0.984 0.422 0.984 0.984s-0.422 0.984-0.984 0.984-0.984-0.422-0.984-0.984 0.422-0.984 0.984-0.984zM18 9c0.563 0 0.984 0.422 0.984 0.984s-0.422 1.031-0.984 1.031-0.984-0.469-0.984-1.031 0.422-0.984 0.984-0.984zM18 17.016c0.563 0 0.984 0.422 0.984 0.984s-0.422 0.984-0.984 0.984-0.984-0.422-0.984-0.984 0.422-0.984 0.984-0.984zM18 12.984c0.563 0 0.984 0.469 0.984 1.031s-0.422 0.984-0.984 0.984-0.984-0.422-0.984-0.984 0.422-1.031 0.984-1.031zM9.984 12.516c0.844 0 1.5 0.656 1.5 1.5s-0.656 1.5-1.5 1.5-1.5-0.656-1.5-1.5 0.656-1.5 1.5-1.5zM9.984 6.984c-0.563 0-0.984-0.422-0.984-0.984s0.422-0.984 0.984-0.984 1.031 0.422 1.031 0.984-0.469 0.984-1.031 0.984zM9.984 3.516c-0.281 0-0.469-0.234-0.469-0.516s0.188-0.516 0.469-0.516 0.516 0.234 0.516 0.516-0.234 0.516-0.516 0.516zM9.984 20.484c0.281 0 0.516 0.234 0.516 0.516s-0.234 0.516-0.516 0.516-0.469-0.234-0.469-0.516 0.188-0.516 0.469-0.516zM3 13.5c0.281 0 0.516 0.234 0.516 0.516s-0.234 0.469-0.516 0.469-0.516-0.188-0.516-0.469 0.234-0.516 0.516-0.516zM14.016 3.516c-0.281 0-0.516-0.234-0.516-0.516s0.234-0.516 0.516-0.516 0.469 0.234 0.469 0.516-0.188 0.516-0.469 0.516zM14.016 6.984c-0.563 0-1.031-0.422-1.031-0.984s0.469-0.984 1.031-0.984 0.984 0.422 0.984 0.984-0.422 0.984-0.984 0.984zM21 10.5c-0.281 0-0.516-0.234-0.516-0.516s0.234-0.469 0.516-0.469 0.516 0.188 0.516 0.469-0.234 0.516-0.516 0.516zM6 5.016c0.563 0 0.984 0.422 0.984 0.984s-0.422 0.984-0.984 0.984-0.984-0.422-0.984-0.984 0.422-0.984 0.984-0.984zM3 9.516c0.281 0 0.516 0.188 0.516 0.469s-0.234 0.516-0.516 0.516-0.516-0.234-0.516-0.516 0.234-0.469 0.516-0.469zM6 9c0.563 0 0.984 0.422 0.984 0.984s-0.422 1.031-0.984 1.031-0.984-0.469-0.984-1.031 0.422-0.984 0.984-0.984zM6 17.016c0.563 0 0.984 0.422 0.984 0.984s-0.422 0.984-0.984 0.984-0.984-0.422-0.984-0.984 0.422-0.984 0.984-0.984zM6 12.984c0.563 0 0.984 0.469 0.984 1.031s-0.422 0.984-0.984 0.984-0.984-0.422-0.984-0.984 0.422-1.031 0.984-1.031z"></path>
</symbol>
<symbol id="icon-class" viewBox="0 0 24 24">
<title>class</title>
<path d="M6 3.984v8.016l2.484-1.5 2.531 1.5v-8.016h-5.016zM18 2.016c1.078 0 2.016 0.891 2.016 1.969v16.031c0 1.078-0.938 1.969-2.016 1.969h-12c-1.078 0-2.016-0.891-2.016-1.969v-16.031c0-1.078 0.938-1.969 2.016-1.969h12z"></path>
</symbol>
<symbol id="icon-turned_in" viewBox="0 0 24 24">
<title>turned_in</title>
<path d="M17.016 3c1.078 0 1.969 0.938 1.969 2.016v15.984l-6.984-3-6.984 3v-15.984c0-1.078 0.891-2.016 1.969-2.016h10.031z"></path>
</symbol>
<symbol id="icon-turned_in_not" viewBox="0 0 24 24">
<title>turned_in_not</title>
<path d="M17.016 18v-12.984h-10.031v12.984l5.016-2.203zM17.016 3c1.078 0 1.969 0.938 1.969 2.016v15.984l-6.984-3-6.984 3v-15.984c0-1.078 0.891-2.016 1.969-2.016h10.031z"></path>
</symbol>
<symbol id="icon-border_all" viewBox="0 0 24 24">
<title>border_all</title>
<path d="M18.984 11.016v-6h-6v6h6zM18.984 18.984v-6h-6v6h6zM11.016 11.016v-6h-6v6h6zM11.016 18.984v-6h-6v6h6zM3 3h18v18h-18v-18z"></path>
</symbol>
<symbol id="icon-border_bottom" viewBox="0 0 24 24">
<title>border_bottom</title>
<path d="M5.016 15v2.016h-2.016v-2.016h2.016zM3 21v-2.016h18v2.016h-18zM5.016 11.016v1.969h-2.016v-1.969h2.016zM18.984 9v-2.016h2.016v2.016h-2.016zM18.984 3h2.016v2.016h-2.016v-2.016zM5.016 6.984v2.016h-2.016v-2.016h2.016zM18.984 17.016v-2.016h2.016v2.016h-2.016zM18.984 12.984v-1.969h2.016v1.969h-2.016zM17.016 3v2.016h-2.016v-2.016h2.016zM12.984 3v2.016h-1.969v-2.016h1.969zM17.016 11.016v1.969h-2.016v-1.969h2.016zM12.984 6.984v2.016h-1.969v-2.016h1.969zM5.016 3v2.016h-2.016v-2.016h2.016zM12.984 11.016v1.969h-1.969v-1.969h1.969zM9 3v2.016h-2.016v-2.016h2.016zM12.984 15v2.016h-1.969v-2.016h1.969zM9 11.016v1.969h-2.016v-1.969h2.016z"></path>
</symbol>
<symbol id="icon-border_clear" viewBox="0 0 24 24">
<title>border_clear</title>
<path d="M15 5.016v-2.016h2.016v2.016h-2.016zM15 12.984v-1.969h2.016v1.969h-2.016zM15 21v-2.016h2.016v2.016h-2.016zM11.016 5.016v-2.016h1.969v2.016h-1.969zM18.984 3h2.016v2.016h-2.016v-2.016zM11.016 9v-2.016h1.969v2.016h-1.969zM18.984 9v-2.016h2.016v2.016h-2.016zM18.984 21v-2.016h2.016v2.016h-2.016zM18.984 12.984v-1.969h2.016v1.969h-2.016zM18.984 17.016v-2.016h2.016v2.016h-2.016zM11.016 12.984v-1.969h1.969v1.969h-1.969zM3 5.016v-2.016h2.016v2.016h-2.016zM3 9v-2.016h2.016v2.016h-2.016zM3 12.984v-1.969h2.016v1.969h-2.016zM3 17.016v-2.016h2.016v2.016h-2.016zM3 21v-2.016h2.016v2.016h-2.016zM11.016 21v-2.016h1.969v2.016h-1.969zM11.016 17.016v-2.016h1.969v2.016h-1.969zM6.984 21v-2.016h2.016v2.016h-2.016zM6.984 12.984v-1.969h2.016v1.969h-2.016zM6.984 5.016v-2.016h2.016v2.016h-2.016z"></path>
</symbol>
<symbol id="icon-border_color" viewBox="0 0 24 24">
<title>border_color</title>
<path d="M0 20.016h24v3.984h-24v-3.984zM20.719 4.031l-1.969 1.969-3.75-3.75 1.969-1.969c0.375-0.375 1.031-0.375 1.406 0l2.344 2.344c0.375 0.375 0.375 1.031 0 1.406zM17.766 6.984l-10.031 10.031h-3.75v-3.75l10.031-10.031z"></path>
</symbol>
<symbol id="icon-border_horizontal" viewBox="0 0 24 24">
<title>border_horizontal</title>
<path d="M18.984 21v-2.016h2.016v2.016h-2.016zM15 21v-2.016h2.016v2.016h-2.016zM11.016 17.016v-2.016h1.969v2.016h-1.969zM18.984 9v-2.016h2.016v2.016h-2.016zM18.984 3h2.016v2.016h-2.016v-2.016zM3 12.984v-1.969h18v1.969h-18zM11.016 21v-2.016h1.969v2.016h-1.969zM18.984 17.016v-2.016h2.016v2.016h-2.016zM12.984 3v2.016h-1.969v-2.016h1.969zM12.984 6.984v2.016h-1.969v-2.016h1.969zM17.016 3v2.016h-2.016v-2.016h2.016zM9 3v2.016h-2.016v-2.016h2.016zM5.016 3v2.016h-2.016v-2.016h2.016zM6.984 21v-2.016h2.016v2.016h-2.016zM3 17.016v-2.016h2.016v2.016h-2.016zM5.016 6.984v2.016h-2.016v-2.016h2.016zM3 21v-2.016h2.016v2.016h-2.016z"></path>
</symbol>
<symbol id="icon-border_inner" viewBox="0 0 24 24">
<title>border_inner</title>
<path d="M18.984 17.016v-2.016h2.016v2.016h-2.016zM18.984 21v-2.016h2.016v2.016h-2.016zM12.984 3v8.016h8.016v1.969h-8.016v8.016h-1.969v-8.016h-8.016v-1.969h8.016v-8.016h1.969zM15 21v-2.016h2.016v2.016h-2.016zM18.984 3h2.016v2.016h-2.016v-2.016zM18.984 9v-2.016h2.016v2.016h-2.016zM17.016 3v2.016h-2.016v-2.016h2.016zM5.016 3v2.016h-2.016v-2.016h2.016zM9 3v2.016h-2.016v-2.016h2.016zM3 17.016v-2.016h2.016v2.016h-2.016zM5.016 6.984v2.016h-2.016v-2.016h2.016zM6.984 21v-2.016h2.016v2.016h-2.016zM3 21v-2.016h2.016v2.016h-2.016z"></path>
</symbol>
<symbol id="icon-border_left" viewBox="0 0 24 24">
<title>border_left</title>
<path d="M15 5.016v-2.016h2.016v2.016h-2.016zM15 12.984v-1.969h2.016v1.969h-2.016zM18.984 21v-2.016h2.016v2.016h-2.016zM18.984 12.984v-1.969h2.016v1.969h-2.016zM18.984 3h2.016v2.016h-2.016v-2.016zM18.984 17.016v-2.016h2.016v2.016h-2.016zM15 21v-2.016h2.016v2.016h-2.016zM18.984 9v-2.016h2.016v2.016h-2.016zM3 21v-18h2.016v18h-2.016zM6.984 12.984v-1.969h2.016v1.969h-2.016zM6.984 5.016v-2.016h2.016v2.016h-2.016zM6.984 21v-2.016h2.016v2.016h-2.016zM11.016 12.984v-1.969h1.969v1.969h-1.969zM11.016 9v-2.016h1.969v2.016h-1.969zM11.016 5.016v-2.016h1.969v2.016h-1.969zM11.016 17.016v-2.016h1.969v2.016h-1.969zM11.016 21v-2.016h1.969v2.016h-1.969z"></path>
</symbol>
<symbol id="icon-border_outer" viewBox="0 0 24 24">
<title>border_outer</title>
<path d="M9 11.016v1.969h-2.016v-1.969h2.016zM12.984 15v2.016h-1.969v-2.016h1.969zM18.984 18.984v-13.969h-13.969v13.969h13.969zM3 3h18v18h-18v-18zM17.016 11.016v1.969h-2.016v-1.969h2.016zM12.984 11.016v1.969h-1.969v-1.969h1.969zM12.984 6.984v2.016h-1.969v-2.016h1.969z"></path>
</symbol>
<symbol id="icon-border_right" viewBox="0 0 24 24">
<title>border_right</title>
<path d="M11.016 9v-2.016h1.969v2.016h-1.969zM11.016 5.016v-2.016h1.969v2.016h-1.969zM11.016 12.984v-1.969h1.969v1.969h-1.969zM15 5.016v-2.016h2.016v2.016h-2.016zM15 21v-2.016h2.016v2.016h-2.016zM18.984 3h2.016v18h-2.016v-18zM15 12.984v-1.969h2.016v1.969h-2.016zM11.016 17.016v-2.016h1.969v2.016h-1.969zM3 9v-2.016h2.016v2.016h-2.016zM3 17.016v-2.016h2.016v2.016h-2.016zM3 12.984v-1.969h2.016v1.969h-2.016zM11.016 21v-2.016h1.969v2.016h-1.969zM3 21v-2.016h2.016v2.016h-2.016zM6.984 12.984v-1.969h2.016v1.969h-2.016zM6.984 5.016v-2.016h2.016v2.016h-2.016zM3 5.016v-2.016h2.016v2.016h-2.016zM6.984 21v-2.016h2.016v2.016h-2.016z"></path>
</symbol>
<symbol id="icon-border_style" viewBox="0 0 24 24">
<title>border_style</title>
<path d="M18.984 9v-2.016h2.016v2.016h-2.016zM3 3h18v2.016h-15.984v15.984h-2.016v-18zM18.984 12.984v-1.969h2.016v1.969h-2.016zM18.984 17.016v-2.016h2.016v2.016h-2.016zM11.016 21v-2.016h1.969v2.016h-1.969zM6.984 21v-2.016h2.016v2.016h-2.016zM18.984 21v-2.016h2.016v2.016h-2.016zM15 21v-2.016h2.016v2.016h-2.016z"></path>
</symbol>
<symbol id="icon-border_top" viewBox="0 0 24 24">
<title>border_top</title>
<path d="M15 12.984v-1.969h2.016v1.969h-2.016zM18.984 21v-2.016h2.016v2.016h-2.016zM11.016 9v-2.016h1.969v2.016h-1.969zM15 21v-2.016h2.016v2.016h-2.016zM18.984 17.016v-2.016h2.016v2.016h-2.016zM3 3h18v2.016h-18v-2.016zM18.984 12.984v-1.969h2.016v1.969h-2.016zM18.984 9v-2.016h2.016v2.016h-2.016zM11.016 17.016v-2.016h1.969v2.016h-1.969zM3 9v-2.016h2.016v2.016h-2.016zM3 12.984v-1.969h2.016v1.969h-2.016zM3 21v-2.016h2.016v2.016h-2.016zM3 17.016v-2.016h2.016v2.016h-2.016zM11.016 21v-2.016h1.969v2.016h-1.969zM11.016 12.984v-1.969h1.969v1.969h-1.969zM6.984 12.984v-1.969h2.016v1.969h-2.016zM6.984 21v-2.016h2.016v2.016h-2.016z"></path>
</symbol>
<symbol id="icon-border_vertical" viewBox="0 0 24 24">
<title>border_vertical</title>
<path d="M15 12.984v-1.969h2.016v1.969h-2.016zM15 21v-2.016h2.016v2.016h-2.016zM15 5.016v-2.016h2.016v2.016h-2.016zM18.984 9v-2.016h2.016v2.016h-2.016zM18.984 3h2.016v2.016h-2.016v-2.016zM18.984 12.984v-1.969h2.016v1.969h-2.016zM18.984 21v-2.016h2.016v2.016h-2.016zM11.016 21v-18h1.969v18h-1.969zM18.984 17.016v-2.016h2.016v2.016h-2.016zM6.984 5.016v-2.016h2.016v2.016h-2.016zM3 17.016v-2.016h2.016v2.016h-2.016zM3 21v-2.016h2.016v2.016h-2.016zM3 12.984v-1.969h2.016v1.969h-2.016zM6.984 12.984v-1.969h2.016v1.969h-2.016zM6.984 21v-2.016h2.016v2.016h-2.016zM3 5.016v-2.016h2.016v2.016h-2.016zM3 9v-2.016h2.016v2.016h-2.016z"></path>
</symbol>
<symbol id="icon-branding_watermark" viewBox="0 0 24 24">
<title>branding_watermark</title>
<path d="M21 18.984v-6h-9v6h9zM21 3c1.078 0 2.016 0.938 2.016 2.016v13.969c0 1.078-0.938 2.016-2.016 2.016h-18c-1.078 0-2.016-0.938-2.016-2.016v-13.969c0-1.078 0.938-2.016 2.016-2.016h18z"></path>
</symbol>
<symbol id="icon-brightness_1" viewBox="0 0 24 24">
<title>brightness_1</title>
<path d="M2.016 12c0-5.531 4.453-9.984 9.984-9.984s9.984 4.453 9.984 9.984-4.453 9.984-9.984 9.984-9.984-4.453-9.984-9.984z"></path>
</symbol>
<symbol id="icon-brightness_2" viewBox="0 0 24 24">
<title>brightness_2</title>
<path d="M9.984 2.016c5.531 0 10.031 4.453 10.031 9.984s-4.5 9.984-10.031 9.984c-1.828 0-3.516-0.469-4.969-1.313 3-1.734 4.969-4.969 4.969-8.672s-1.969-6.938-4.969-8.672c1.453-0.844 3.141-1.313 4.969-1.313z"></path>
</symbol>
<symbol id="icon-brightness_3" viewBox="0 0 24 24">
<title>brightness_3</title>
<path d="M9 2.016c5.531 0 9.984 4.453 9.984 9.984s-4.453 9.984-9.984 9.984c-1.031 0-2.063-0.141-3-0.422 4.078-1.266 6.984-5.063 6.984-9.563s-2.906-8.297-6.984-9.563c0.938-0.281 1.969-0.422 3-0.422z"></path>
</symbol>
<symbol id="icon-brightness_4" viewBox="0 0 24 24">
<title>brightness_4</title>
<path d="M12 18c3.328 0 6-2.672 6-6s-2.672-6-6-6c-0.891 0-1.734 0.234-2.484 0.563 2.063 0.938 3.469 3 3.469 5.438s-1.406 4.5-3.469 5.438c0.75 0.328 1.594 0.563 2.484 0.563zM20.016 8.672l3.281 3.328-3.281 3.328v4.688h-4.688l-3.328 3.281-3.328-3.281h-4.688v-4.688l-3.281-3.328 3.281-3.328v-4.688h4.688l3.328-3.281 3.328 3.281h4.688v4.688z"></path>
</symbol>
<symbol id="icon-brightness_low" viewBox="0 0 24 24">
<title>brightness_low</title>
<path d="M12 18c3.328 0 6-2.672 6-6s-2.672-6-6-6-6 2.672-6 6 2.672 6 6 6zM20.016 15.328v4.688h-4.688l-3.328 3.281-3.328-3.281h-4.688v-4.688l-3.281-3.328 3.281-3.328v-4.688h4.688l3.328-3.281 3.328 3.281h4.688v4.688l3.281 3.328z"></path>
</symbol>
<symbol id="icon-brightness_medium" viewBox="0 0 24 24">
<title>brightness_medium</title>
<path d="M12 18c3.328 0 6-2.672 6-6s-2.672-6-6-6v12zM20.016 15.328v4.688h-4.688l-3.328 3.281-3.328-3.281h-4.688v-4.688l-3.281-3.328 3.281-3.328v-4.688h4.688l3.328-3.281 3.328 3.281h4.688v4.688l3.281 3.328z"></path>
</symbol>
<symbol id="icon-brightness_high" viewBox="0 0 24 24">
<title>brightness_high</title>
<path d="M12 8.016c2.203 0 3.984 1.781 3.984 3.984s-1.781 3.984-3.984 3.984-3.984-1.781-3.984-3.984 1.781-3.984 3.984-3.984zM12 18c3.328 0 6-2.672 6-6s-2.672-6-6-6-6 2.672-6 6 2.672 6 6 6zM20.016 8.672l3.281 3.328-3.281 3.328v4.688h-4.688l-3.328 3.281-3.328-3.281h-4.688v-4.688l-3.281-3.328 3.281-3.328v-4.688h4.688l3.328-3.281 3.328 3.281h4.688v4.688z"></path>
</symbol>
<symbol id="icon-brightness_auto" viewBox="0 0 24 24">
<title>brightness_auto</title>
<path d="M14.297 15.984h1.922l-3.234-9h-1.969l-3.234 9h1.922l0.703-1.969h3.188zM20.016 8.672l3.281 3.328-3.281 3.328v4.688h-4.688l-3.328 3.281-3.328-3.281h-4.688v-4.688l-3.281-3.328 3.281-3.328v-4.688h4.688l3.328-3.281 3.328 3.281h4.688v4.688zM10.828 12.656l1.172-3.656 1.172 3.656h-2.344z"></path>
</symbol>
<symbol id="icon-broken_image" viewBox="0 0 24 24">
<title>broken_image</title>
<path d="M18 11.438l3 3v4.547c0 1.078-0.938 2.016-2.016 2.016h-13.969c-1.078 0-2.016-0.938-2.016-2.016v-6.563l3 3 3.984-4.031 4.031 4.031zM21 5.016v6.563l-3-3-3.984 4.031-4.031-4.031-3.984 4.031-3-3.047v-4.547c0-1.078 0.938-2.016 2.016-2.016h13.969c1.078 0 2.016 0.938 2.016 2.016z"></path>
</symbol>
<symbol id="icon-brush" viewBox="0 0 24 24">
<title>brush</title>
<path d="M20.719 4.641c0.375 0.375 0.375 1.031 0 1.406l-8.953 8.953-2.766-2.766 8.953-8.953c0.375-0.375 1.031-0.375 1.406 0zM6.984 14.016c1.641 0 3 1.359 3 3 0 2.203-1.781 3.984-3.984 3.984-1.5 0-3.047-0.797-3.984-2.016 0.844 0 1.969-0.656 1.969-1.969 0-1.641 1.359-3 3-3z"></path>
</symbol>
<symbol id="icon-bubble_chart" viewBox="0 0 24 24">
<title>bubble_chart</title>
<path d="M10.406 8.813c0-2.672 2.109-4.828 4.781-4.828s4.828 2.156 4.828 4.828-2.156 4.781-4.828 4.781-4.781-2.109-4.781-4.781zM12.797 18c0-1.125 0.891-2.016 2.016-2.016s1.969 0.891 1.969 2.016-0.844 2.016-1.969 2.016-2.016-0.891-2.016-2.016zM3.984 14.391c0-1.781 1.453-3.188 3.234-3.188s3.188 1.406 3.188 3.188-1.406 3.188-3.188 3.188-3.234-1.406-3.234-3.188z"></path>
</symbol>
<symbol id="icon-bug_report" viewBox="0 0 24 24">
<title>bug_report</title>
<path d="M14.016 12v-2.016h-4.031v2.016h4.031zM14.016 15.984v-1.969h-4.031v1.969h4.031zM20.016 8.016v1.969h-2.109c0.047 0.328 0.094 0.703 0.094 1.031v0.984h2.016v2.016h-2.016v0.984c0 0.328-0.047 0.656-0.094 0.984h2.109v2.016h-2.813c-1.031 1.781-3 3-5.203 3s-4.172-1.219-5.203-3h-2.813v-2.016h2.109c-0.047-0.328-0.094-0.656-0.094-0.984v-0.984h-2.016v-2.016h2.016v-0.984c0-0.328 0.047-0.703 0.094-1.031h-2.109v-1.969h2.813c0.469-0.797 1.078-1.453 1.828-1.969l-1.641-1.641 1.406-1.406 2.203 2.156c0.469-0.094 0.938-0.141 1.406-0.141s0.938 0.047 1.406 0.141l2.203-2.156 1.406 1.406-1.641 1.641c0.75 0.516 1.359 1.172 1.828 1.969h2.813z"></path>
</symbol>
<symbol id="icon-build" viewBox="0 0 24 24">
<title>build</title>
<path d="M22.688 18.984c0.422 0.281 0.422 0.984-0.094 1.406l-2.297 2.297c-0.422 0.422-0.984 0.422-1.406 0l-9.094-9.094c-2.297 0.891-4.969 0.422-6.891-1.5-2.016-2.016-2.531-5.016-1.313-7.406l4.406 4.313 3-3-4.313-4.313c2.391-1.078 5.391-0.703 7.406 1.313 1.922 1.922 2.391 4.594 1.5 6.891z"></path>
</symbol>
</defs>
</svg>
